<?xml version="1.0" encoding="utf-8"?>
<!-- Generator: Adobe Illustrator 23.0.5, SVG Export Plug-In . SVG Version: 6.00 Build 0)  -->
<svg version="1.1" id="Layer_1" xmlns="http://www.w3.org/2000/svg" xmlns:xlink="http://www.w3.org/1999/xlink" x="0px" y="0px"
	 viewBox="0 0 800 800" style="enable-background:new 0 0 800 800;" xml:space="preserve">
<style type="text/css">
	.st0{fill:#F2AB55;}
</style>
<g>
	<path class="st0" d="M240.6,286.5c-31.3,0-56.8,25.5-56.8,56.8c0,31.3,25.5,56.8,56.8,56.8s56.8-25.5,56.8-56.8
		S271.9,286.5,240.6,286.5z M240.6,363.5c-11.2,0-20.3-9.1-20.3-20.3c0-11.2,9.1-20.3,20.3-20.3c11.2,0,20.3,9.1,20.3,20.3
		S251.8,363.5,240.6,363.5z"/>
	<path class="st0" d="M502.6,343.2c0-31.3-25.5-56.8-56.8-56.8s-56.8,25.5-56.8,56.8c0,31.3,25.5,56.8,56.8,56.8
		S502.6,374.5,502.6,343.2z M445.8,363.5c-11.2,0-20.3-9.1-20.3-20.3c0-11.2,9.1-20.3,20.3-20.3s20.3,9.1,20.3,20.3
		S457,363.5,445.8,363.5z"/>
	<path class="st0" d="M680.5,406.8c3.9-20.9,5.9-42.2,5.9-63.5C686.4,154,532.5,0,343.2,0C154,0,0,154,0,343.2
		c0,189.3,154,343.2,343.2,343.2c21.4,0,42.7-2,63.5-5.9C439.6,751,511.1,800,593.8,800C707.5,800,800,707.5,800,593.8
		C800,511.1,751,439.6,680.5,406.8L680.5,406.8z M343.2,650C174.1,650,36.5,512.4,36.5,343.2c0-169.1,137.6-306.7,306.8-306.7
		C512.4,36.5,650,174.1,650,343.2c0,17.1-1.4,34.2-4.2,51c-11.1-2.9-22.6-4.9-34.4-5.9c2.5-14.9,3.8-30,3.8-45.1
		c0-149.9-122-271.9-271.9-271.9c-149.9,0-271.9,122-271.9,271.9s122,271.9,271.9,271.9c15.2,0,30.3-1.3,45.1-3.8
		c1,11.8,3,23.3,5.9,34.4C377.4,648.5,360.4,650,343.2,650L343.2,650z M388.6,574.2c-14.8,2.9-30,4.4-45.3,4.4
		c-129.8,0-235.4-105.6-235.4-235.4s105.6-235.4,235.4-235.4s235.4,105.6,235.4,235.4c0,15.3-1.5,30.4-4.4,45.3
		C476.1,397.8,397.8,476.1,388.6,574.2z M593.8,763.5c-93.6,0-169.7-76.1-169.7-169.7s76.1-169.7,169.7-169.7
		c93.6,0,169.7,76.1,169.7,169.7S687.4,763.5,593.8,763.5L593.8,763.5z"/>
	<path class="st0" d="M593.8,447.2c-80.8,0-146.6,65.8-146.6,146.6S513,740.4,593.8,740.4s146.6-65.8,146.6-146.6
		S674.6,447.2,593.8,447.2L593.8,447.2z M593.8,703.9c-60.7,0-110.1-49.4-110.1-110.1c0-60.7,49.4-110.1,110.1-110.1
		c60.7,0,110.1,49.4,110.1,110.1C703.9,654.5,654.5,703.9,593.8,703.9z"/>
	<path class="st0" d="M343.2,297.4c31.3,0,56.8-25.5,56.8-56.8s-25.5-56.8-56.8-56.8s-56.8,25.5-56.8,56.8
		C286.5,271.9,311.9,297.4,343.2,297.4z M343.2,220.3c11.2,0,20.3,9.1,20.3,20.3s-9.1,20.3-20.3,20.3c-11.2,0-20.3-9.1-20.3-20.3
		C322.9,229.4,332,220.3,343.2,220.3z"/>
	<path class="st0" d="M343.2,389.1c-31.3,0-56.8,25.5-56.8,56.8c0,31.3,25.5,56.8,56.8,56.8s56.8-25.5,56.8-56.8
		C400,414.5,374.5,389.1,343.2,389.1z M343.2,466.1c-11.2,0-20.3-9.1-20.3-20.3c0-11.2,9.1-20.3,20.3-20.3
		c11.2,0,20.3,9.1,20.3,20.3C363.5,457,354.4,466.1,343.2,466.1z"/>
	<path class="st0" d="M550.2,575.6c-4.8,0-9.5,2-12.9,5.3c-3.4,3.4-5.3,8.1-5.3,12.9c0,4.8,2,9.5,5.3,12.9c3.4,3.4,8.1,5.3,12.9,5.3
		c4.8,0,9.5-1.9,12.9-5.3c3.4-3.4,5.3-8.1,5.3-12.9c0-4.8-2-9.5-5.3-12.9C559.7,577.5,555,575.6,550.2,575.6z"/>
	<path class="st0" d="M637.4,575.6c-4.8,0-9.5,1.9-12.9,5.3s-5.3,8.1-5.3,12.9c0,4.8,2,9.5,5.3,12.9c3.4,3.4,8.1,5.3,12.9,5.3
		s9.5-1.9,12.9-5.3c3.4-3.4,5.3-8.1,5.3-12.9c0-4.8-2-9.5-5.3-12.9C646.9,577.5,642.2,575.6,637.4,575.6z"/>
</g>
</svg>
