<?xml version="1.0" encoding="iso-8859-1"?>
<!-- Uploaded to: SVG Repo, www.svgrepo.com, Generator: SVG Repo Mixer Tools -->
<svg version="1.1" id="Layer_1" xmlns="http://www.w3.org/2000/svg" xmlns:xlink="http://www.w3.org/1999/xlink" 
	 viewBox="0 0 512 512" xml:space="preserve">
<g transform="translate(1 1)">
	<path style="fill:#63D3FD;" d="M485.4,118.467c0,14.507-11.093,25.6-25.6,25.6s-8.533-11.093-8.533-25.6s-5.973-25.6,8.533-25.6
		S485.4,103.96,485.4,118.467"/>
	<path style="fill:#3DB9F9;" d="M476.867,92.867c-3.413,0-5.973,0.853-8.533,1.707c10.24,3.413,17.067,12.8,17.067,23.893
		s-6.827,20.48-17.067,23.893c2.56,0.853,5.12,1.707,8.533,1.707c14.507,0,25.6-11.093,25.6-25.6S491.373,92.867,476.867,92.867"/>
	<path style="fill:#63D3FD;" d="M24.6,391.533c0-14.507,11.093-25.6,25.6-25.6s8.533,11.093,8.533,25.6s5.973,25.6-8.533,25.6
		S24.6,406.04,24.6,391.533"/>
	<path style="fill:#FFFFFF;" d="M33.133,417.133c3.413,0,5.973-0.853,8.533-1.707c-10.24-3.413-17.067-12.8-17.067-23.893
		s6.827-20.48,17.067-23.893c-2.56-0.853-5.12-1.707-8.533-1.707c-14.507,0-25.6,11.093-25.6,25.6S18.627,417.133,33.133,417.133"/>
	<path style="fill:#FECC00;" d="M269.507,502.467h-53.76c-11.947,0-20.48-8.533-20.48-19.627V434.2h93.867v48.64
		C289.133,493.933,280.6,502.467,269.507,502.467"/>
	<path style="fill:#FFA800;" d="M289.133,434.2v48.64c0,11.093-8.533,19.627-19.627,19.627h25.6
		c11.093,0,19.627-8.533,19.627-19.627V434.2H289.133z"/>
	<path style="fill:#FECC00;" d="M289.133,75.8h-93.867V27.16c0-11.093,8.533-19.627,19.627-19.627h53.76
		c11.947,0,20.48,8.533,20.48,19.627V75.8z"/>
	<path style="fill:#FFA800;" d="M295.107,7.533h-25.6c11.093,0,19.627,8.533,19.627,19.627V75.8h25.6V27.16
		C314.733,16.067,306.2,7.533,295.107,7.533"/>
	<path style="fill:#FFE100;" d="M337.773,434.2H146.627c-11.093,0-19.627-8.533-19.627-19.627V95.427
		c0-11.093,8.533-19.627,19.627-19.627H336.92c11.947,0,20.48,8.533,20.48,19.627V413.72C357.4,425.667,348.867,434.2,337.773,434.2
		"/>
	<path style="fill:#FFA800;" d="M363.373,75.8h-25.6c11.093,0,19.627,8.533,19.627,19.627V413.72
		c0,11.093-8.533,19.627-19.627,19.627h25.6c11.093,0,19.627-8.533,19.627-19.627V95.427C383,84.333,374.467,75.8,363.373,75.8"/>
	<g>
		<path style="fill:#FFFFFF;" d="M220.867,75.8V27.16c0-11.093,8.533-19.627,19.627-19.627h-25.6
			c-11.093,0-19.627,8.533-19.627,19.627V75.8H220.867z"/>
		<path style="fill:#FFFFFF;" d="M214.893,502.467h25.6c-11.093,0-19.627-8.533-19.627-19.627V434.2h-25.6v48.64
			C195.267,493.933,203.8,502.467,214.893,502.467"/>
		<path style="fill:#FFFFFF;" d="M146.627,434.2h25.6c-11.093,0-19.627-8.533-19.627-19.627V95.427
			c0-11.093,8.533-19.627,19.627-19.627h-25.6C135.533,75.8,127,84.333,127,95.427V413.72C127,425.667,135.533,434.2,146.627,434.2"
			/>
	</g>
	<path d="M363.373,442.733H146.627c-15.36,0-28.16-12.8-28.16-28.16V95.427c0-15.36,12.8-28.16,28.16-28.16H362.52
		c15.36,0,28.16,12.8,28.16,28.16V413.72C391.533,429.933,378.733,442.733,363.373,442.733z M146.627,84.333
		c-5.973,0-11.093,5.12-11.093,11.093V413.72c0,5.973,5.12,11.093,11.093,11.093H362.52c5.973,0,11.093-5.12,11.093-11.093V95.427
		c0.853-5.973-4.267-11.093-10.24-11.093H146.627z"/>
	<path d="M295.107,511h-79.36c-15.36,0-28.16-12.8-28.16-28.16v-57.173H324.12v57.173C323.267,498.2,310.467,511,295.107,511z
		 M203.8,442.733v40.107c0,5.973,5.12,11.093,11.093,11.093h79.36c5.973,0,11.093-5.12,11.093-11.093v-40.107H203.8z"/>
	<path d="M323.267,84.333H186.733V27.16c0-15.36,12.8-28.16,28.16-28.16h79.36c16.213,0,29.013,12.8,29.013,28.16V84.333z
		 M203.8,67.267h102.4V27.16c0-5.973-5.12-11.093-11.093-11.093h-79.36c-6.827,0-11.947,5.12-11.947,11.093V67.267z"/>
	
		<rect x="107.381" y="139.802" transform="matrix(-0.8627 0.5058 -0.5058 -0.8627 542.0829 149.4764)" width="286.732" height="17.067"/>
	
		<rect x="117.653" y="349.057" transform="matrix(-0.8757 0.4828 -0.4828 -0.8757 658.228 545.7511)" width="282.446" height="17.066"/>
	
		<rect x="246.443" y="122.737" transform="matrix(-0.2576 0.9662 -0.9662 -0.2576 567.0513 74.3168)" width="17.066" height="264.52"/>
	
		<rect x="179.906" y="173.942" transform="matrix(-0.8609 0.5088 -0.5088 -0.8609 630.889 192.4572)" width="218.456" height="17.067"/>
	
		<rect x="244.691" y="207.859" transform="matrix(-0.8574 0.5146 -0.5146 -0.8574 704.5366 237.5874)" width="149.329" height="17.066"/>
	
		<rect x="308.745" y="242.185" transform="matrix(-0.8478 0.5304 -0.5304 -0.8478 777.5728 278.2455)" width="80.217" height="17.067"/>
	
		<rect x="214.133" y="199.237" transform="matrix(-0.2676 0.9635 -0.9635 -0.2676 570.4197 164.5639)" width="17.066" height="199.674"/>
	
		<rect x="184.771" y="272.239" transform="matrix(-0.2577 0.9662 -0.9662 -0.2577 572.5347 242.0163)" width="17.066" height="137.383"/>
	
		<rect x="157.273" y="338.281" transform="matrix(-0.3162 0.9487 -0.9487 -0.3162 577.6127 341.2963)" width="17.067" height="81.067"/>
	
		<rect x="226.039" y="383.188" transform="matrix(-0.8621 0.5067 -0.5067 -0.8621 775.914 572.3041)" width="168.103" height="17.066"/>
	
		<rect x="115.905" y="109.919" transform="matrix(-0.874 0.4859 -0.4859 -0.874 439.4753 122.9542)" width="175.784" height="17.066"/>
	
		<rect x="370.189" y="161.181" transform="matrix(-0.7476 0.6641 -0.6641 -0.7476 849.1374 16.744)" width="102.397" height="17.066"/>
	<path d="M476.867,152.6c-18.773,0-34.133-15.36-34.133-34.133s15.36-34.133,34.133-34.133S511,99.693,511,118.467
		S495.64,152.6,476.867,152.6z M476.867,101.4c-9.387,0-17.067,7.68-17.067,17.067s7.68,17.067,17.067,17.067
		s17.067-7.68,17.067-17.067S486.253,101.4,476.867,101.4z"/>
	<rect x="37.39" y="331.775" transform="matrix(-0.7472 0.6646 -0.6646 -0.7472 380.953 535.7103)" width="102.4" height="17.067"/>
	<path d="M33.133,425.667C14.36,425.667-1,410.307-1,391.533S14.36,357.4,33.133,357.4s34.133,15.36,34.133,34.133
		S51.907,425.667,33.133,425.667z M33.133,374.467c-9.387,0-17.067,7.68-17.067,17.067s7.68,17.067,17.067,17.067
		S50.2,400.92,50.2,391.533S42.52,374.467,33.133,374.467z"/>
</g>
</svg>